<?xml version="1.0" standalone="no"?>
<!DOCTYPE svg PUBLIC "-//W3C//DTD SVG 20010904//EN"
 "http://www.w3.org/TR/2001/REC-SVG-20010904/DTD/svg10.dtd">
<svg version="1.0" xmlns="http://www.w3.org/2000/svg"
 width="1156.000000pt" height="327.000000pt" viewBox="0 0 1156.000000 327.000000"
 preserveAspectRatio="xMidYMid meet">

<g transform="translate(0.000000,327.000000) scale(0.100000,-0.100000)"
fill="#000000" stroke="none">
<path d="M1228 3264 c-3 -5 -278 -727 -611 -1604 -333 -877 -609 -1603 -612
-1612 -7 -17 10 -18 277 -18 282 0 285 0 305 23 11 12 150 355 308 762 361
930 336 868 345 858 5 -4 130 -361 280 -793 150 -432 278 -800 286 -817 l13
-33 295 0 c163 0 296 2 296 5 0 25 -630 1773 -963 2670 -191 514 -213 570
-219 559z"/>
<path d="M2466 2238 c-9 -35 -7 -731 3 -746 5 -8 22 -12 42 -10 l34 3 5 272
c3 149 8 274 11 278 4 3 92 -88 195 -202 225 -247 344 -373 356 -373 4 0 7
172 6 383 l-3 382 -40 0 -40 0 -5 -273 c-3 -149 -9 -272 -13 -273 -5 0 -116
118 -247 263 -130 145 -251 276 -267 291 l-30 28 -7 -23z"/>
<path d="M6795 2238 c-2 -7 -66 -174 -140 -372 -75 -197 -134 -361 -131 -364
4 -3 30 -7 59 -10 49 -4 56 -2 75 23 12 15 49 99 83 186 34 87 65 159 69 159
4 0 33 -73 65 -162 65 -185 82 -208 148 -208 23 0 48 4 55 9 11 6 -15 87 -120
376 -73 203 -139 370 -145 373 -7 2 -15 -2 -18 -10z"/>
<path d="M7765 2231 c-49 -23 -89 -64 -109 -113 -47 -111 16 -227 146 -272
107 -38 178 -76 193 -106 59 -114 -89 -239 -202 -171 -17 11 -44 41 -59 68
-15 26 -29 49 -30 51 -2 3 -62 -25 -71 -33 -2 -1 4 -22 13 -48 19 -56 86 -121
140 -136 153 -43 300 46 320 192 16 113 -46 192 -192 246 -49 19 -103 42 -120
52 -63 38 -70 126 -13 173 24 20 41 26 80 26 59 0 83 -11 126 -56 37 -40 42
-41 76 -14 30 24 27 40 -12 84 -64 70 -199 97 -286 57z"/>
<path d="M3543 2233 l-23 -4 0 -376 0 -375 193 4 c186 3 194 4 249 31 99 49
167 147 190 278 28 161 -62 348 -200 416 -55 27 -63 28 -222 30 -91 1 -175 -1
-187 -4z m342 -112 c59 -26 109 -71 138 -126 33 -62 31 -200 -4 -275 -30 -64
-79 -117 -129 -138 -22 -9 -81 -17 -157 -20 l-123 -5 0 286 c0 262 1 287 18
297 30 19 199 7 257 -19z"/>
<path d="M4618 2234 c-5 -4 -8 -175 -8 -381 l0 -373 50 0 50 0 1 148 c2 234
-7 231 139 35 73 -98 136 -173 152 -181 21 -10 37 -10 68 -2 l39 11 -129 164
c-72 90 -130 166 -130 168 0 3 23 8 52 11 63 9 98 26 132 66 76 90 49 248 -53
308 -41 24 -54 26 -200 30 -86 2 -159 1 -163 -4z m288 -100 c67 -32 87 -135
38 -193 -26 -31 -26 -31 -125 -31 l-99 0 0 120 0 120 76 0 c50 0 88 -6 110
-16z"/>
<path d="M5653 2233 l-31 -4 -7 -127 c-7 -122 2 -599 11 -614 3 -5 95 -8 205
-8 l199 0 0 40 0 40 -132 0 c-194 0 -178 -13 -178 146 0 158 -18 143 175 147
l130 2 0 35 0 35 -152 3 -153 3 0 109 0 110 156 0 155 0 -3 43 -3 42 -170 1
c-93 1 -184 -1 -202 -3z"/>
<path d="M5924 788 c-9 -29 -9 -682 0 -726 7 -29 11 -32 47 -32 l39 0 2 286 3
286 268 -296 c148 -163 273 -296 278 -296 5 0 9 164 9 390 l0 390 -45 0 -45 0
0 -280 c0 -154 -4 -280 -9 -280 -4 0 -116 120 -249 268 -132 147 -251 278
-265 290 l-25 24 -8 -24z"/>
<path d="M11270 801 c-120 -25 -199 -142 -170 -252 19 -71 76 -118 203 -168
135 -54 161 -81 154 -155 -4 -41 -11 -55 -40 -82 -46 -42 -94 -52 -152 -29
-47 17 -79 53 -90 98 -8 31 -18 33 -63 9 l-32 -18 26 -52 c32 -65 83 -108 153
-128 188 -56 363 141 280 313 -29 59 -69 87 -191 134 -121 46 -148 70 -148
133 0 53 26 90 76 106 52 18 100 4 149 -41 46 -43 64 -47 100 -23 l24 15 -21
35 c-46 79 -161 125 -258 105z"/>
<path d="M2900 409 l0 -381 188 4 188 3 66 33 c103 51 164 139 189 275 24 130
-26 274 -127 366 -78 71 -117 81 -331 81 l-173 0 0 -381z m346 276 c64 -19
118 -65 151 -129 23 -44 27 -63 28 -141 0 -102 -17 -153 -76 -220 -54 -61 -95
-75 -231 -75 l-118 0 0 284 c0 263 1 285 18 289 40 11 182 6 228 -8z"/>
<path d="M5000 410 l0 -380 205 0 205 0 0 45 0 45 -155 0 -155 0 0 140 0 139
151 3 c147 3 152 4 160 26 6 17 4 27 -11 42 -18 18 -34 20 -160 20 l-140 0 0
105 0 104 153 3 152 3 3 43 3 42 -205 0 -206 0 0 -380z"/>
<path d="M7015 781 c-26 -5 -30 -10 -30 -41 l0 -35 101 -3 102 -3 7 -242 c4
-133 6 -267 5 -297 -2 -30 -2 -72 -2 -93 l2 -38 48 3 47 3 3 333 2 332 105 0
105 0 0 39 c0 32 -4 40 -22 45 -30 8 -434 5 -473 -3z"/>
<path d="M8492 777 c-7 -8 -12 -112 -14 -283 -3 -267 -3 -271 -27 -306 -45
-64 -84 -83 -176 -83 -71 0 -86 3 -122 27 -74 49 -78 66 -81 376 l-3 272 -50
0 -51 0 3 -288 c4 -286 4 -288 30 -337 61 -120 224 -175 379 -129 78 23 131
63 165 126 l30 53 3 286 3 286 -23 7 c-35 9 -55 7 -66 -7z"/>
<path d="M9125 782 l-40 -7 0 -370 0 -370 48 -3 47 -3 0 175 c0 152 2 175 15
170 8 -4 69 -80 135 -169 132 -179 151 -194 215 -172 l34 12 -125 160 c-69 88
-127 163 -130 166 -2 4 24 12 57 18 74 13 124 48 150 105 44 98 6 226 -82 272
-33 16 -255 27 -324 16z m206 -82 c95 -17 141 -98 103 -177 -26 -51 -54 -63
-156 -63 l-88 0 0 119 0 120 33 4 c17 2 37 5 43 5 6 1 36 -2 65 -8z"/>
<path d="M10125 781 l-30 -6 0 -370 0 -370 203 -3 202 -2 0 45 0 45 -155 0
-155 0 0 140 0 139 152 3 c167 3 169 4 154 64 l-6 24 -150 0 -150 0 0 105 0
105 139 0 c77 0 146 3 155 6 10 4 16 18 16 39 0 25 -5 34 -22 39 -30 8 -314 6
-353 -3z"/>
<path d="M3843 773 c-13 -2 -23 -7 -23 -10 0 -9 260 -724 269 -741 12 -21 85
155 216 518 34 96 66 190 70 208 l7 32 -54 0 c-30 0 -62 -6 -71 -12 -9 -7 -42
-77 -72 -156 -30 -78 -63 -158 -73 -177 l-18 -36 -44 128 c-87 255 -97 267
-207 246z"/>
</g>
</svg>
